<mxfile host="drawio-plugin" modified="2024-08-19T10:40:56.495Z" agent="Mozilla/5.0 (Windows NT 10.0; Win64; x64) AppleWebKit/537.36 (KHTML, like Gecko) Chrome/122.0.0.0 Safari/537.36" etag="x1JaQABVTB6r3PGYlvaw" version="22.1.22" type="embed">
  <diagram name="Page-1" id="KoVoG4g8Pu-1eCOtKn7X">
    <mxGraphModel dx="565" dy="799" grid="0" gridSize="10" guides="1" tooltips="1" connect="1" arrows="1" fold="1" page="0" pageScale="1" pageWidth="827" pageHeight="1169" background="#FFFFFF" math="0" shadow="0">
      <root>
        <mxCell id="0" />
        <mxCell id="1" parent="0" />
        <mxCell id="9pxvDb1ASe3QDJCR0HjD-1" value="Utilisateur" style="shape=umlLifeline;perimeter=lifelinePerimeter;whiteSpace=wrap;html=1;container=0;dropTarget=0;collapsible=0;recursiveResize=0;outlineConnect=0;portConstraint=eastwest;newEdgeStyle={&quot;edgeStyle&quot;:&quot;elbowEdgeStyle&quot;,&quot;elbow&quot;:&quot;vertical&quot;,&quot;curved&quot;:0,&quot;rounded&quot;:0};" parent="1" vertex="1">
          <mxGeometry x="110" y="80" width="100" height="497" as="geometry" />
        </mxCell>
        <mxCell id="9pxvDb1ASe3QDJCR0HjD-2" value="Server" style="shape=umlLifeline;perimeter=lifelinePerimeter;whiteSpace=wrap;html=1;container=0;dropTarget=0;collapsible=0;recursiveResize=0;outlineConnect=0;portConstraint=eastwest;newEdgeStyle={&quot;edgeStyle&quot;:&quot;elbowEdgeStyle&quot;,&quot;elbow&quot;:&quot;vertical&quot;,&quot;curved&quot;:0,&quot;rounded&quot;:0};" parent="1" vertex="1">
          <mxGeometry x="290" y="80" width="100" height="494" as="geometry" />
        </mxCell>
        <mxCell id="9pxvDb1ASe3QDJCR0HjD-3" value="" style="html=1;verticalAlign=bottom;endArrow=block;edgeStyle=elbowEdgeStyle;elbow=vertical;curved=0;rounded=0;" parent="1" edge="1">
          <mxGeometry relative="1" as="geometry">
            <mxPoint x="165" y="159.9999999999999" as="sourcePoint" />
            <Array as="points">
              <mxPoint x="250" y="160" />
            </Array>
            <mxPoint x="335" y="160" as="targetPoint" />
          </mxGeometry>
        </mxCell>
        <mxCell id="9pxvDb1ASe3QDJCR0HjD-4" value="Clique sur le bouton s&#39;inscrire" style="text;html=1;align=center;verticalAlign=middle;resizable=0;points=[];autosize=1;strokeColor=none;fillColor=none;" parent="1" vertex="1">
          <mxGeometry x="163" y="130" width="175" height="26" as="geometry" />
        </mxCell>
        <mxCell id="9pxvDb1ASe3QDJCR0HjD-6" value="SD: Inscription" style="shape=umlFrame;whiteSpace=wrap;html=1;pointerEvents=0;recursiveResize=0;container=1;collapsible=0;width=160;" parent="1" vertex="1">
          <mxGeometry width="740" height="585" as="geometry" />
        </mxCell>
        <mxCell id="9pxvDb1ASe3QDJCR0HjD-7" value="SGBD" style="shape=umlLifeline;perimeter=lifelinePerimeter;whiteSpace=wrap;html=1;container=0;dropTarget=0;collapsible=0;recursiveResize=0;outlineConnect=0;portConstraint=eastwest;newEdgeStyle={&quot;edgeStyle&quot;:&quot;elbowEdgeStyle&quot;,&quot;elbow&quot;:&quot;vertical&quot;,&quot;curved&quot;:0,&quot;rounded&quot;:0};" parent="9pxvDb1ASe3QDJCR0HjD-6" vertex="1">
          <mxGeometry x="470" y="80" width="100" height="494" as="geometry" />
        </mxCell>
        <mxCell id="9pxvDb1ASe3QDJCR0HjD-9" value="Afficher la page du formulaire" style="html=1;verticalAlign=bottom;endArrow=block;edgeStyle=elbowEdgeStyle;elbow=vertical;curved=0;rounded=0;exitX=0;exitY=0.75;exitDx=0;exitDy=0;" parent="9pxvDb1ASe3QDJCR0HjD-6" edge="1">
          <mxGeometry relative="1" as="geometry">
            <mxPoint x="332" y="209" as="sourcePoint" />
            <Array as="points">
              <mxPoint x="254.5" y="214" />
            </Array>
            <mxPoint x="162" y="214" as="targetPoint" />
            <mxPoint as="offset" />
          </mxGeometry>
        </mxCell>
        <mxCell id="9pxvDb1ASe3QDJCR0HjD-11" value="" style="rounded=0;dashed=0;" parent="9pxvDb1ASe3QDJCR0HjD-6" vertex="1">
          <mxGeometry x="335" y="150" width="10" height="290" as="geometry" />
        </mxCell>
        <mxCell id="9pxvDb1ASe3QDJCR0HjD-12" value="alt" style="shape=umlFrame;whiteSpace=wrap;html=1;pointerEvents=0;recursiveResize=0;container=1;collapsible=0;width=60;height=30;" parent="9pxvDb1ASe3QDJCR0HjD-6" vertex="1">
          <mxGeometry x="68" y="276" width="530" height="266" as="geometry" />
        </mxCell>
        <mxCell id="9pxvDb1ASe3QDJCR0HjD-13" value="[&amp;nbsp; Informations incorrecte ]" style="text;html=1;align=center;verticalAlign=middle;resizable=0;points=[];autosize=1;strokeColor=none;fillColor=none;" parent="9pxvDb1ASe3QDJCR0HjD-12" vertex="1">
          <mxGeometry x="90" y="10" width="160" height="30" as="geometry" />
        </mxCell>
        <mxCell id="9pxvDb1ASe3QDJCR0HjD-14" value="" style="endArrow=none;dashed=1;html=1;rounded=0;exitX=0;exitY=0.594;exitDx=0;exitDy=0;exitPerimeter=0;entryX=0.998;entryY=0.594;entryDx=0;entryDy=0;entryPerimeter=0;" parent="9pxvDb1ASe3QDJCR0HjD-12" edge="1">
          <mxGeometry width="50" height="50" relative="1" as="geometry">
            <mxPoint x="1.06" y="89.49999999999997" as="sourcePoint" />
            <mxPoint x="530" y="89.49999999999997" as="targetPoint" />
          </mxGeometry>
        </mxCell>
        <mxCell id="9pxvDb1ASe3QDJCR0HjD-15" value="Message erreur" style="html=1;verticalAlign=bottom;endArrow=open;dashed=1;endSize=8;edgeStyle=elbowEdgeStyle;elbow=vertical;curved=0;rounded=0;entryX=1.155;entryY=0.851;entryDx=0;entryDy=0;entryPerimeter=0;" parent="9pxvDb1ASe3QDJCR0HjD-12" edge="1">
          <mxGeometry relative="1" as="geometry">
            <mxPoint x="90" y="59.99999999999994" as="targetPoint" />
            <Array as="points">
              <mxPoint x="170.95000000000005" y="60.43000000000001" />
            </Array>
            <mxPoint x="262.95000000000005" y="60.43000000000001" as="sourcePoint" />
          </mxGeometry>
        </mxCell>
        <mxCell id="9pxvDb1ASe3QDJCR0HjD-16" value="Envoie email confirmation" style="html=1;verticalAlign=bottom;endArrow=open;dashed=1;endSize=8;edgeStyle=elbowEdgeStyle;elbow=vertical;curved=0;rounded=0;" parent="9pxvDb1ASe3QDJCR0HjD-12" target="B1hWPHmu3U0Fmf4UKgYy-13" edge="1">
          <mxGeometry relative="1" as="geometry">
            <mxPoint x="156" y="162" as="targetPoint" />
            <Array as="points">
              <mxPoint x="170.95000000000005" y="159.43" />
            </Array>
            <mxPoint x="262.95000000000005" y="159.43" as="sourcePoint" />
          </mxGeometry>
        </mxCell>
        <mxCell id="9pxvDb1ASe3QDJCR0HjD-17" value="[&amp;nbsp; Informations correcte ]" style="text;html=1;align=center;verticalAlign=middle;resizable=0;points=[];autosize=1;strokeColor=none;fillColor=none;" parent="9pxvDb1ASe3QDJCR0HjD-12" vertex="1">
          <mxGeometry x="95" y="90" width="150" height="30" as="geometry" />
        </mxCell>
        <mxCell id="B1hWPHmu3U0Fmf4UKgYy-5" value="Enregistrement" style="html=1;verticalAlign=bottom;endArrow=block;edgeStyle=elbowEdgeStyle;elbow=vertical;curved=0;rounded=0;" parent="9pxvDb1ASe3QDJCR0HjD-12" edge="1">
          <mxGeometry relative="1" as="geometry">
            <mxPoint x="283" y="114" as="sourcePoint" />
            <Array as="points">
              <mxPoint x="393" y="114" />
            </Array>
            <mxPoint x="442" y="114" as="targetPoint" />
            <mxPoint as="offset" />
          </mxGeometry>
        </mxCell>
        <mxCell id="B1hWPHmu3U0Fmf4UKgYy-6" value="Réponse SGBD" style="html=1;verticalAlign=bottom;endArrow=block;elbow=vertical;rounded=0;exitX=0;exitY=0.75;exitDx=0;exitDy=0;" parent="9pxvDb1ASe3QDJCR0HjD-12" edge="1">
          <mxGeometry relative="1" as="geometry">
            <mxPoint x="446" y="146" as="sourcePoint" />
            <mxPoint x="286" y="146" as="targetPoint" />
            <mxPoint as="offset" />
          </mxGeometry>
        </mxCell>
        <mxCell id="9pxvDb1ASe3QDJCR0HjD-10" value="" style="rounded=0;dashed=0;fillColor=#18141D;" parent="9pxvDb1ASe3QDJCR0HjD-12" vertex="1">
          <mxGeometry x="447" y="94" width="10" height="60" as="geometry" />
        </mxCell>
        <mxCell id="B1hWPHmu3U0Fmf4UKgYy-8" value="Confirme l&#39;email" style="html=1;verticalAlign=bottom;endArrow=block;edgeStyle=elbowEdgeStyle;elbow=vertical;curved=0;rounded=0;" parent="9pxvDb1ASe3QDJCR0HjD-12" edge="1">
          <mxGeometry relative="1" as="geometry">
            <mxPoint x="100" y="198" as="sourcePoint" />
            <Array as="points">
              <mxPoint x="210" y="198" />
            </Array>
            <mxPoint x="259" y="198" as="targetPoint" />
            <mxPoint as="offset" />
          </mxGeometry>
        </mxCell>
        <mxCell id="B1hWPHmu3U0Fmf4UKgYy-9" value="Valide l&#39;inscription" style="html=1;verticalAlign=bottom;endArrow=block;edgeStyle=elbowEdgeStyle;elbow=vertical;curved=0;rounded=0;" parent="9pxvDb1ASe3QDJCR0HjD-12" edge="1">
          <mxGeometry relative="1" as="geometry">
            <mxPoint x="286" y="212" as="sourcePoint" />
            <Array as="points">
              <mxPoint x="396" y="212" />
            </Array>
            <mxPoint x="445" y="212" as="targetPoint" />
            <mxPoint as="offset" />
          </mxGeometry>
        </mxCell>
        <mxCell id="B1hWPHmu3U0Fmf4UKgYy-10" value="Réponse SGBD" style="html=1;verticalAlign=bottom;endArrow=block;elbow=vertical;rounded=0;exitX=0;exitY=0.75;exitDx=0;exitDy=0;" parent="9pxvDb1ASe3QDJCR0HjD-12" edge="1">
          <mxGeometry relative="1" as="geometry">
            <mxPoint x="445" y="235" as="sourcePoint" />
            <mxPoint x="285" y="235" as="targetPoint" />
            <mxPoint as="offset" />
          </mxGeometry>
        </mxCell>
        <mxCell id="B1hWPHmu3U0Fmf4UKgYy-11" value="Confirme l&#39;inscription" style="html=1;verticalAlign=bottom;endArrow=open;dashed=1;endSize=8;edgeStyle=elbowEdgeStyle;elbow=vertical;curved=0;rounded=0;entryX=1.155;entryY=0.851;entryDx=0;entryDy=0;entryPerimeter=0;" parent="9pxvDb1ASe3QDJCR0HjD-12" edge="1">
          <mxGeometry relative="1" as="geometry">
            <mxPoint x="95" y="249" as="targetPoint" />
            <Array as="points">
              <mxPoint x="175.95000000000005" y="249.43000000000006" />
            </Array>
            <mxPoint x="267.95000000000005" y="249.43000000000006" as="sourcePoint" />
          </mxGeometry>
        </mxCell>
        <mxCell id="B1hWPHmu3U0Fmf4UKgYy-12" value="" style="rounded=0;dashed=0;fillColor=#18141D;" parent="9pxvDb1ASe3QDJCR0HjD-12" vertex="1">
          <mxGeometry x="447" y="191" width="10" height="60" as="geometry" />
        </mxCell>
        <mxCell id="B1hWPHmu3U0Fmf4UKgYy-13" value="" style="rounded=0;dashed=0;fillColor=#18141D;" parent="9pxvDb1ASe3QDJCR0HjD-12" vertex="1">
          <mxGeometry x="88" y="144" width="10" height="116" as="geometry" />
        </mxCell>
        <mxCell id="B1hWPHmu3U0Fmf4UKgYy-3" value="" style="html=1;verticalAlign=bottom;endArrow=block;edgeStyle=elbowEdgeStyle;elbow=vertical;curved=0;rounded=0;" parent="9pxvDb1ASe3QDJCR0HjD-6" edge="1">
          <mxGeometry relative="1" as="geometry">
            <mxPoint x="162" y="254.9999999999999" as="sourcePoint" />
            <Array as="points">
              <mxPoint x="247" y="255" />
            </Array>
            <mxPoint x="332" y="255" as="targetPoint" />
          </mxGeometry>
        </mxCell>
        <mxCell id="B1hWPHmu3U0Fmf4UKgYy-4" value="Remplit le formulaire" style="text;html=1;align=center;verticalAlign=middle;resizable=0;points=[];autosize=1;strokeColor=none;fillColor=none;" parent="9pxvDb1ASe3QDJCR0HjD-6" vertex="1">
          <mxGeometry x="184" y="225" width="128" height="26" as="geometry" />
        </mxCell>
      </root>
    </mxGraphModel>
  </diagram>
</mxfile>
